# xmcd
#
# Track frame offsets:
#	150
#	32721
#	82003
#	143507
#	178499
#	228241
#
# Disc length: 3561 seconds
# Revision: 1
# Processed by: cddbd v1.5.2PL0 Copyright (c) Steve Scherf et al.
# Submitted via: dBpowerAMP V12.0
#
DISCID=490de706
DTITLE=Lester Levenson - The Way CD 01
DYEAR=1989
DGENRE=Home Study
TTITLE0=Session May 21st 1989 pt 1
TTITLE1=Session May 21st 1989 pt 2
TTITLE2=Session May 21st 1989 pt 3
TTITLE3=Session June 4th 1989 pt 1
TTITLE4=Session June 4th 1989 pt 2
TTITLE5=Session June 4th 1989 pt 3
EXTD=
EXTT0=
EXTT1=
EXTT2=
EXTT3=
EXTT4=
EXTT5=
PLAYORDER=
